<mxfile host="Electron" modified="2024-02-13T09:50:12.540Z" agent="Mozilla/5.0 (Windows NT 10.0; Win64; x64) AppleWebKit/537.36 (KHTML, like Gecko) draw.io/22.1.2 Chrome/114.0.5735.289 Electron/25.9.4 Safari/537.36" etag="KRi0LsOX1mXZWlZuzr3B" version="22.1.2" type="device">
  <diagram id="C5RBs43oDa-KdzZeNtuy" name="Page-1">
    <mxGraphModel dx="864" dy="516" grid="1" gridSize="10" guides="1" tooltips="1" connect="1" arrows="1" fold="1" page="1" pageScale="1" pageWidth="827" pageHeight="1169" math="0" shadow="0">
      <root>
        <mxCell id="WIyWlLk6GJQsqaUBKTNV-0" />
        <mxCell id="WIyWlLk6GJQsqaUBKTNV-1" parent="WIyWlLk6GJQsqaUBKTNV-0" />
        <mxCell id="aEpoocXC9z5co_6qrbVB-0" value="EMPLOYE" style="rounded=1;whiteSpace=wrap;html=1;dashed=1;" parent="WIyWlLk6GJQsqaUBKTNV-1" vertex="1">
          <mxGeometry x="294" y="210" width="120" height="60" as="geometry" />
        </mxCell>
        <mxCell id="aEpoocXC9z5co_6qrbVB-3" value="DIRECTRICE DES RESSOURCES HUMAINES" style="rounded=1;whiteSpace=wrap;html=1;" parent="WIyWlLk6GJQsqaUBKTNV-1" vertex="1">
          <mxGeometry x="80" y="80" width="120" height="60" as="geometry" />
        </mxCell>
        <mxCell id="aEpoocXC9z5co_6qrbVB-4" value="RESPONSABLE INFRASTRUCTURE" style="rounded=1;whiteSpace=wrap;html=1;" parent="WIyWlLk6GJQsqaUBKTNV-1" vertex="1">
          <mxGeometry x="560" y="80" width="120" height="60" as="geometry" />
        </mxCell>
        <mxCell id="aEpoocXC9z5co_6qrbVB-6" value="COMPTABLE" style="rounded=1;whiteSpace=wrap;html=1;" parent="WIyWlLk6GJQsqaUBKTNV-1" vertex="1">
          <mxGeometry x="560" y="360" width="120" height="60" as="geometry" />
        </mxCell>
        <mxCell id="aEpoocXC9z5co_6qrbVB-9" value="DIRECTEUR DES SYSTEMES D&#39;INFORMATION" style="rounded=1;whiteSpace=wrap;html=1;" parent="WIyWlLk6GJQsqaUBKTNV-1" vertex="1">
          <mxGeometry x="80" y="360" width="120" height="60" as="geometry" />
        </mxCell>
        <mxCell id="aEpoocXC9z5co_6qrbVB-13" value="" style="endArrow=classic;html=1;rounded=0;exitX=0;exitY=0.5;exitDx=0;exitDy=0;entryX=0.25;entryY=1;entryDx=0;entryDy=0;" parent="WIyWlLk6GJQsqaUBKTNV-1" source="aEpoocXC9z5co_6qrbVB-0" target="aEpoocXC9z5co_6qrbVB-3" edge="1">
          <mxGeometry width="50" height="50" relative="1" as="geometry">
            <mxPoint x="300.8" y="211" as="sourcePoint" />
            <mxPoint x="193" y="141" as="targetPoint" />
          </mxGeometry>
        </mxCell>
        <mxCell id="aEpoocXC9z5co_6qrbVB-42" value="&lt;b&gt;&lt;font style=&quot;font-size: 12px;&quot;&gt;F5&lt;/font&gt;&lt;/b&gt;" style="edgeLabel;html=1;align=center;verticalAlign=middle;resizable=0;points=[];" parent="aEpoocXC9z5co_6qrbVB-13" vertex="1" connectable="0">
          <mxGeometry x="-0.2342" y="1" relative="1" as="geometry">
            <mxPoint as="offset" />
          </mxGeometry>
        </mxCell>
        <mxCell id="aEpoocXC9z5co_6qrbVB-16" value="" style="verticalLabelPosition=bottom;shadow=0;dashed=0;align=center;html=1;verticalAlign=top;shape=mxgraph.electrical.rot_mech.verticalLabelPosition=bottom;shadow=0;dashed=0;align=center;fillColor=strokeColor;html=1;verticalAlign=top;strokeWidth=1;shape=mxgraph.electrical.rot_mech.rotation;rotation=-175;" parent="WIyWlLk6GJQsqaUBKTNV-1" vertex="1">
          <mxGeometry x="89.99999999999997" y="56.56" width="27.57" height="23.44" as="geometry" />
        </mxCell>
        <mxCell id="aEpoocXC9z5co_6qrbVB-20" value="" style="endArrow=classic;html=1;rounded=0;exitX=0.75;exitY=0;exitDx=0;exitDy=0;entryX=0.75;entryY=1;entryDx=0;entryDy=0;" parent="WIyWlLk6GJQsqaUBKTNV-1" source="aEpoocXC9z5co_6qrbVB-6" target="aEpoocXC9z5co_6qrbVB-4" edge="1">
          <mxGeometry width="50" height="50" relative="1" as="geometry">
            <mxPoint x="390" y="290" as="sourcePoint" />
            <mxPoint x="440" y="240" as="targetPoint" />
          </mxGeometry>
        </mxCell>
        <mxCell id="aEpoocXC9z5co_6qrbVB-40" value="&lt;b&gt;&lt;font style=&quot;font-size: 12px;&quot;&gt;F7&lt;/font&gt;&lt;/b&gt;" style="edgeLabel;html=1;align=center;verticalAlign=middle;resizable=0;points=[];" parent="aEpoocXC9z5co_6qrbVB-20" vertex="1" connectable="0">
          <mxGeometry x="-0.0273" y="-3" relative="1" as="geometry">
            <mxPoint as="offset" />
          </mxGeometry>
        </mxCell>
        <mxCell id="aEpoocXC9z5co_6qrbVB-21" value="" style="endArrow=classic;html=1;rounded=0;exitX=1;exitY=0.25;exitDx=0;exitDy=0;entryX=0;entryY=0.25;entryDx=0;entryDy=0;" parent="WIyWlLk6GJQsqaUBKTNV-1" source="aEpoocXC9z5co_6qrbVB-3" target="aEpoocXC9z5co_6qrbVB-4" edge="1">
          <mxGeometry width="50" height="50" relative="1" as="geometry">
            <mxPoint x="340" y="120" as="sourcePoint" />
            <mxPoint x="390" y="70" as="targetPoint" />
          </mxGeometry>
        </mxCell>
        <mxCell id="aEpoocXC9z5co_6qrbVB-54" value="&lt;b&gt;&lt;font style=&quot;font-size: 12px;&quot;&gt;F4&lt;/font&gt;&lt;/b&gt;" style="edgeLabel;html=1;align=center;verticalAlign=middle;resizable=0;points=[];" parent="aEpoocXC9z5co_6qrbVB-21" vertex="1" connectable="0">
          <mxGeometry x="0.0222" y="-3" relative="1" as="geometry">
            <mxPoint as="offset" />
          </mxGeometry>
        </mxCell>
        <mxCell id="aEpoocXC9z5co_6qrbVB-23" value="" style="endArrow=classic;html=1;rounded=0;exitX=0.25;exitY=1;exitDx=0;exitDy=0;entryX=0.25;entryY=0;entryDx=0;entryDy=0;" parent="WIyWlLk6GJQsqaUBKTNV-1" source="aEpoocXC9z5co_6qrbVB-4" target="aEpoocXC9z5co_6qrbVB-6" edge="1">
          <mxGeometry width="50" height="50" relative="1" as="geometry">
            <mxPoint x="390" y="290" as="sourcePoint" />
            <mxPoint x="440" y="240" as="targetPoint" />
          </mxGeometry>
        </mxCell>
        <mxCell id="aEpoocXC9z5co_6qrbVB-41" value="&lt;b&gt;&lt;font style=&quot;font-size: 12px;&quot;&gt;F6&lt;/font&gt;&lt;/b&gt;" style="edgeLabel;html=1;align=center;verticalAlign=middle;resizable=0;points=[];" parent="aEpoocXC9z5co_6qrbVB-23" vertex="1" connectable="0">
          <mxGeometry x="-0.0545" y="-2" relative="1" as="geometry">
            <mxPoint as="offset" />
          </mxGeometry>
        </mxCell>
        <mxCell id="aEpoocXC9z5co_6qrbVB-24" value="" style="verticalLabelPosition=bottom;shadow=0;dashed=0;align=center;html=1;verticalAlign=top;shape=mxgraph.electrical.rot_mech.verticalLabelPosition=bottom;shadow=0;dashed=0;align=center;fillColor=strokeColor;html=1;verticalAlign=top;strokeWidth=1;shape=mxgraph.electrical.rot_mech.rotation;rotation=-175;" parent="WIyWlLk6GJQsqaUBKTNV-1" vertex="1">
          <mxGeometry x="570" y="56.56" width="27.57" height="23.44" as="geometry" />
        </mxCell>
        <mxCell id="aEpoocXC9z5co_6qrbVB-25" value="" style="endArrow=classic;html=1;rounded=0;entryX=1;entryY=0;entryDx=0;entryDy=0;" parent="WIyWlLk6GJQsqaUBKTNV-1" edge="1">
          <mxGeometry width="50" height="50" relative="1" as="geometry">
            <mxPoint x="560" y="130" as="sourcePoint" />
            <mxPoint x="404" y="210" as="targetPoint" />
          </mxGeometry>
        </mxCell>
        <mxCell id="aEpoocXC9z5co_6qrbVB-37" value="&lt;b&gt;&lt;font style=&quot;font-size: 12px;&quot;&gt;F9&lt;/font&gt;&lt;/b&gt;" style="edgeLabel;html=1;align=center;verticalAlign=middle;resizable=0;points=[];" parent="aEpoocXC9z5co_6qrbVB-25" vertex="1" connectable="0">
          <mxGeometry x="-0.1733" y="1" relative="1" as="geometry">
            <mxPoint as="offset" />
          </mxGeometry>
        </mxCell>
        <mxCell id="aEpoocXC9z5co_6qrbVB-26" value="" style="endArrow=classic;html=1;rounded=0;entryX=0.25;entryY=0;entryDx=0;entryDy=0;exitX=0;exitY=0.75;exitDx=0;exitDy=0;" parent="WIyWlLk6GJQsqaUBKTNV-1" source="aEpoocXC9z5co_6qrbVB-0" target="aEpoocXC9z5co_6qrbVB-9" edge="1">
          <mxGeometry width="50" height="50" relative="1" as="geometry">
            <mxPoint x="290" y="260" as="sourcePoint" />
            <mxPoint x="440" y="250" as="targetPoint" />
          </mxGeometry>
        </mxCell>
        <mxCell id="aEpoocXC9z5co_6qrbVB-34" value="&lt;span style=&quot;font-size: 12px;&quot;&gt;&lt;b&gt;F10&lt;/b&gt;&lt;/span&gt;" style="edgeLabel;html=1;align=center;verticalAlign=middle;resizable=0;points=[];" parent="aEpoocXC9z5co_6qrbVB-26" vertex="1" connectable="0">
          <mxGeometry x="-0.0796" y="-3" relative="1" as="geometry">
            <mxPoint y="1" as="offset" />
          </mxGeometry>
        </mxCell>
        <mxCell id="aEpoocXC9z5co_6qrbVB-27" value="" style="endArrow=classic;html=1;rounded=0;exitX=0.25;exitY=0;exitDx=0;exitDy=0;" parent="WIyWlLk6GJQsqaUBKTNV-1" source="aEpoocXC9z5co_6qrbVB-0" edge="1">
          <mxGeometry width="50" height="50" relative="1" as="geometry">
            <mxPoint x="294" y="180" as="sourcePoint" />
            <mxPoint x="190" y="140" as="targetPoint" />
          </mxGeometry>
        </mxCell>
        <mxCell id="aEpoocXC9z5co_6qrbVB-48" value="&lt;font style=&quot;font-size: 12px;&quot;&gt;&lt;b&gt;F2&lt;/b&gt;&lt;/font&gt;" style="edgeLabel;html=1;align=center;verticalAlign=middle;resizable=0;points=[];" parent="aEpoocXC9z5co_6qrbVB-27" vertex="1" connectable="0">
          <mxGeometry x="0.2475" y="-2" relative="1" as="geometry">
            <mxPoint as="offset" />
          </mxGeometry>
        </mxCell>
        <mxCell id="aEpoocXC9z5co_6qrbVB-28" value="" style="endArrow=classic;html=1;rounded=0;exitX=0.75;exitY=0;exitDx=0;exitDy=0;entryX=0.25;entryY=1;entryDx=0;entryDy=0;" parent="WIyWlLk6GJQsqaUBKTNV-1" source="aEpoocXC9z5co_6qrbVB-9" target="aEpoocXC9z5co_6qrbVB-0" edge="1">
          <mxGeometry width="50" height="50" relative="1" as="geometry">
            <mxPoint x="390" y="300" as="sourcePoint" />
            <mxPoint x="400" y="330" as="targetPoint" />
          </mxGeometry>
        </mxCell>
        <mxCell id="aEpoocXC9z5co_6qrbVB-33" value="&lt;font style=&quot;font-size: 12px;&quot;&gt;&lt;b&gt;F11&lt;/b&gt;&lt;/font&gt;" style="edgeLabel;html=1;align=center;verticalAlign=middle;resizable=0;points=[];" parent="aEpoocXC9z5co_6qrbVB-28" vertex="1" connectable="0">
          <mxGeometry x="-0.029" y="2" relative="1" as="geometry">
            <mxPoint y="1" as="offset" />
          </mxGeometry>
        </mxCell>
        <mxCell id="aEpoocXC9z5co_6qrbVB-29" value="" style="endArrow=classic;html=1;rounded=0;exitX=0.992;exitY=0.633;exitDx=0;exitDy=0;entryX=0.75;entryY=1;entryDx=0;entryDy=0;exitPerimeter=0;" parent="WIyWlLk6GJQsqaUBKTNV-1" source="aEpoocXC9z5co_6qrbVB-9" target="aEpoocXC9z5co_6qrbVB-0" edge="1">
          <mxGeometry width="50" height="50" relative="1" as="geometry">
            <mxPoint x="390" y="300" as="sourcePoint" />
            <mxPoint x="400" y="280" as="targetPoint" />
          </mxGeometry>
        </mxCell>
        <mxCell id="aEpoocXC9z5co_6qrbVB-32" value="&lt;b&gt;&lt;font style=&quot;font-size: 12px;&quot;&gt;F12&lt;/font&gt;&lt;/b&gt;" style="edgeLabel;html=1;align=center;verticalAlign=middle;resizable=0;points=[];" parent="aEpoocXC9z5co_6qrbVB-29" vertex="1" connectable="0">
          <mxGeometry x="-0.0162" relative="1" as="geometry">
            <mxPoint as="offset" />
          </mxGeometry>
        </mxCell>
        <mxCell id="aEpoocXC9z5co_6qrbVB-35" value="&lt;b&gt;F8&lt;/b&gt;" style="text;html=1;strokeColor=none;fillColor=none;align=center;verticalAlign=middle;whiteSpace=wrap;rounded=0;" parent="WIyWlLk6GJQsqaUBKTNV-1" vertex="1">
          <mxGeometry x="570" y="40" width="26.21" height="20" as="geometry" />
        </mxCell>
        <mxCell id="aEpoocXC9z5co_6qrbVB-36" value="&lt;b&gt;&lt;font style=&quot;font-size: 10px;&quot;&gt;D6&lt;/font&gt;&lt;/b&gt;" style="text;html=1;strokeColor=none;fillColor=none;align=center;verticalAlign=middle;whiteSpace=wrap;rounded=0;" parent="WIyWlLk6GJQsqaUBKTNV-1" vertex="1">
          <mxGeometry x="110" y="330" width="38" height="20" as="geometry" />
        </mxCell>
        <mxCell id="aEpoocXC9z5co_6qrbVB-38" value="&lt;font style=&quot;font-size: 10px;&quot;&gt;D5&lt;/font&gt;" style="text;html=1;strokeColor=none;fillColor=none;align=center;verticalAlign=middle;whiteSpace=wrap;rounded=0;" parent="WIyWlLk6GJQsqaUBKTNV-1" vertex="1">
          <mxGeometry x="550" y="60" width="20" height="20" as="geometry" />
        </mxCell>
        <mxCell id="aEpoocXC9z5co_6qrbVB-43" value="&lt;font style=&quot;font-size: 10px;&quot;&gt;D1&lt;/font&gt;" style="text;html=1;strokeColor=none;fillColor=none;align=center;verticalAlign=middle;whiteSpace=wrap;rounded=0;" parent="WIyWlLk6GJQsqaUBKTNV-1" vertex="1">
          <mxGeometry x="110" y="147" width="26" height="20" as="geometry" />
        </mxCell>
        <mxCell id="aEpoocXC9z5co_6qrbVB-45" value="&lt;font style=&quot;font-size: 10px;&quot;&gt;D3&lt;/font&gt;" style="text;html=1;strokeColor=none;fillColor=none;align=center;verticalAlign=middle;whiteSpace=wrap;rounded=0;" parent="WIyWlLk6GJQsqaUBKTNV-1" vertex="1">
          <mxGeometry x="535" y="91" width="20" height="20" as="geometry" />
        </mxCell>
        <mxCell id="aEpoocXC9z5co_6qrbVB-46" value="&lt;font style=&quot;font-size: 12px;&quot;&gt;&lt;b&gt;F3&lt;/b&gt;&lt;/font&gt;" style="text;html=1;strokeColor=none;fillColor=none;align=center;verticalAlign=middle;whiteSpace=wrap;rounded=0;" parent="WIyWlLk6GJQsqaUBKTNV-1" vertex="1">
          <mxGeometry x="95.77999999999997" y="43" width="20" height="20" as="geometry" />
        </mxCell>
        <mxCell id="aEpoocXC9z5co_6qrbVB-47" value="&lt;font style=&quot;font-size: 10px;&quot;&gt;D1,D2&lt;/font&gt;" style="text;html=1;strokeColor=none;fillColor=none;align=center;verticalAlign=middle;whiteSpace=wrap;rounded=0;" parent="WIyWlLk6GJQsqaUBKTNV-1" vertex="1">
          <mxGeometry x="61" y="56.56" width="30" height="23.44" as="geometry" />
        </mxCell>
        <mxCell id="aEpoocXC9z5co_6qrbVB-49" value="&lt;font style=&quot;font-size: 10px;&quot;&gt;D1,D2&lt;/font&gt;" style="text;html=1;strokeColor=none;fillColor=none;align=center;verticalAlign=middle;whiteSpace=wrap;rounded=0;" parent="WIyWlLk6GJQsqaUBKTNV-1" vertex="1">
          <mxGeometry x="176" y="140" width="30" height="23.44" as="geometry" />
        </mxCell>
        <mxCell id="aEpoocXC9z5co_6qrbVB-51" value="" style="endArrow=classic;html=1;rounded=0;exitX=1;exitY=0.5;exitDx=0;exitDy=0;entryX=0.75;entryY=0;entryDx=0;entryDy=0;" parent="WIyWlLk6GJQsqaUBKTNV-1" source="aEpoocXC9z5co_6qrbVB-3" target="aEpoocXC9z5co_6qrbVB-0" edge="1">
          <mxGeometry width="50" height="50" relative="1" as="geometry">
            <mxPoint x="294" y="151.72" as="sourcePoint" />
            <mxPoint x="344" y="101.72" as="targetPoint" />
          </mxGeometry>
        </mxCell>
        <mxCell id="aEpoocXC9z5co_6qrbVB-52" value="&lt;b&gt;&lt;font style=&quot;font-size: 12px;&quot;&gt;F1&lt;/font&gt;&lt;/b&gt;" style="edgeLabel;html=1;align=center;verticalAlign=middle;resizable=0;points=[];" parent="aEpoocXC9z5co_6qrbVB-51" vertex="1" connectable="0">
          <mxGeometry x="0.0122" y="2" relative="1" as="geometry">
            <mxPoint as="offset" />
          </mxGeometry>
        </mxCell>
        <mxCell id="aEpoocXC9z5co_6qrbVB-53" value="&lt;font style=&quot;font-size: 10px;&quot;&gt;D1&lt;/font&gt;" style="text;html=1;strokeColor=none;fillColor=none;align=center;verticalAlign=middle;whiteSpace=wrap;rounded=0;" parent="WIyWlLk6GJQsqaUBKTNV-1" vertex="1">
          <mxGeometry x="360" y="181" width="26" height="20" as="geometry" />
        </mxCell>
        <mxCell id="sn5P-3ll6F046W-Q8FBZ-0" value="&lt;font style=&quot;font-size: 10px;&quot;&gt;D4&lt;/font&gt;" style="text;html=1;strokeColor=none;fillColor=none;align=center;verticalAlign=middle;whiteSpace=wrap;rounded=0;" parent="WIyWlLk6GJQsqaUBKTNV-1" vertex="1">
          <mxGeometry x="570" y="338" width="18" height="20" as="geometry" />
        </mxCell>
      </root>
    </mxGraphModel>
  </diagram>
</mxfile>
